<?xml version="1.0" standalone="no"?>
<svg xmlns:xlink="http://www.w3.org/1999/xlink" id="wave" style="transform:rotate(180deg); transition: 0.3s" viewBox="0 0 1440 100" version="1.1" xmlns="http://www.w3.org/2000/svg"><defs><linearGradient id="sw-gradient-0" x1="0" x2="0" y1="1" y2="0"><stop stop-color="rgba(255, 249, 234, 1)" offset="0%"/><stop stop-color="rgba(255, 249, 234, 1)" offset="100%"/></linearGradient></defs><path style="transform:translate(0, 0px); opacity:1" fill="url(#sw-gradient-0)" d="M0,10L24,13.3C48,17,96,23,144,26.7C192,30,240,30,288,28.3C336,27,384,23,432,28.3C480,33,528,47,576,45C624,43,672,27,720,28.3C768,30,816,50,864,48.3C912,47,960,23,1008,20C1056,17,1104,33,1152,45C1200,57,1248,63,1296,60C1344,57,1392,43,1440,40C1488,37,1536,43,1584,45C1632,47,1680,43,1728,36.7C1776,30,1824,20,1872,15C1920,10,1968,10,2016,23.3C2064,37,2112,63,2160,75C2208,87,2256,83,2304,78.3C2352,73,2400,67,2448,61.7C2496,57,2544,53,2592,55C2640,57,2688,63,2736,60C2784,57,2832,43,2880,31.7C2928,20,2976,10,3024,16.7C3072,23,3120,47,3168,50C3216,53,3264,37,3312,28.3C3360,20,3408,20,3432,20L3456,20L3456,100L3432,100C3408,100,3360,100,3312,100C3264,100,3216,100,3168,100C3120,100,3072,100,3024,100C2976,100,2928,100,2880,100C2832,100,2784,100,2736,100C2688,100,2640,100,2592,100C2544,100,2496,100,2448,100C2400,100,2352,100,2304,100C2256,100,2208,100,2160,100C2112,100,2064,100,2016,100C1968,100,1920,100,1872,100C1824,100,1776,100,1728,100C1680,100,1632,100,1584,100C1536,100,1488,100,1440,100C1392,100,1344,100,1296,100C1248,100,1200,100,1152,100C1104,100,1056,100,1008,100C960,100,912,100,864,100C816,100,768,100,720,100C672,100,624,100,576,100C528,100,480,100,432,100C384,100,336,100,288,100C240,100,192,100,144,100C96,100,48,100,24,100L0,100Z"/></svg>